<mxfile host="65bd71144e">
    <diagram id="uQtc3wJGahHLc4eW7xhF" name="Page-1">
        <mxGraphModel dx="645" dy="612" grid="1" gridSize="10" guides="1" tooltips="1" connect="1" arrows="1" fold="1" page="1" pageScale="1" pageWidth="850" pageHeight="1100" math="0" shadow="0">
            <root>
                <mxCell id="0"/>
                <mxCell id="1" parent="0"/>
                <mxCell id="2" value="" style="endArrow=block;html=1;fontColor=#000099;exitX=0.5;exitY=1;exitDx=0;exitDy=0;endFill=0;endSize=8;arcSize=0;entryX=0;entryY=0.1;entryDx=0;entryDy=0;" edge="1" source="4" target="3" parent="1">
                    <mxGeometry width="50" height="50" relative="1" as="geometry">
                        <mxPoint x="-85" y="320" as="sourcePoint"/>
                        <mxPoint x="360" y="480" as="targetPoint"/>
                    </mxGeometry>
                </mxCell>
                <mxCell id="3" value="ns:listItem" style="rounded=0;whiteSpace=wrap;html=1;snapToPoint=1;points=[[0.1,0],[0.2,0],[0.3,0],[0.4,0],[0.5,0],[0.6,0],[0.7,0],[0.8,0],[0.9,0],[0,0.1],[0,0.3],[0,0.5],[0,0.7],[0,0.9],[0.1,1],[0.2,1],[0.3,1],[0.4,1],[0.5,1],[0.6,1],[0.7,1],[0.8,1],[0.9,1],[1,0.1],[1,0.3],[1,0.5],[1,0.7],[1,0.9]];" vertex="1" parent="1">
                    <mxGeometry x="300" y="480" width="100" height="30" as="geometry"/>
                </mxCell>
                <mxCell id="4" value="ns:firstItem" style="rounded=0;whiteSpace=wrap;html=1;snapToPoint=1;points=[[0.1,0],[0.2,0],[0.3,0],[0.4,0],[0.5,0],[0.6,0],[0.7,0],[0.8,0],[0.9,0],[0,0.1],[0,0.3],[0,0.5],[0,0.7],[0,0.9],[0.1,1],[0.2,1],[0.3,1],[0.4,1],[0.5,1],[0.6,1],[0.7,1],[0.8,1],[0.9,1],[1,0.1],[1,0.3],[1,0.5],[1,0.7],[1,0.9]];" vertex="1" parent="1">
                    <mxGeometry x="140" y="380" width="100" height="30" as="geometry"/>
                </mxCell>
                <mxCell id="5" value="" style="endArrow=block;html=1;fontColor=#000099;exitX=0.5;exitY=1;exitDx=0;exitDy=0;endFill=0;endSize=8;arcSize=0;entryX=0.5;entryY=0;entryDx=0;entryDy=0;" edge="1" parent="1" source="6" target="3">
                    <mxGeometry width="50" height="50" relative="1" as="geometry">
                        <mxPoint x="65" y="317" as="sourcePoint"/>
                        <mxPoint x="450" y="480" as="targetPoint"/>
                    </mxGeometry>
                </mxCell>
                <mxCell id="6" value="ns:firstItem" style="rounded=0;whiteSpace=wrap;html=1;snapToPoint=1;points=[[0.1,0],[0.2,0],[0.3,0],[0.4,0],[0.5,0],[0.6,0],[0.7,0],[0.8,0],[0.9,0],[0,0.1],[0,0.3],[0,0.5],[0,0.7],[0,0.9],[0.1,1],[0.2,1],[0.3,1],[0.4,1],[0.5,1],[0.6,1],[0.7,1],[0.8,1],[0.9,1],[1,0.1],[1,0.3],[1,0.5],[1,0.7],[1,0.9]];" vertex="1" parent="1">
                    <mxGeometry x="300" y="380" width="100" height="30" as="geometry"/>
                </mxCell>
                <mxCell id="10" value="" style="endArrow=classic;html=1;exitX=1;exitY=0.5;exitDx=0;exitDy=0;endSize=8;arcSize=0;edgeStyle=orthogonalEdgeStyle;curved=1;entryX=0.7;entryY=1;entryDx=0;entryDy=0;" edge="1" source="3" target="3" parent="1">
                    <mxGeometry width="50" height="50" relative="1" as="geometry">
                        <mxPoint x="360" y="625" as="sourcePoint"/>
                        <mxPoint x="470" y="610" as="targetPoint"/>
                        <Array as="points">
                            <mxPoint x="420" y="495"/>
                            <mxPoint x="420" y="540"/>
                            <mxPoint x="370" y="540"/>
                        </Array>
                    </mxGeometry>
                </mxCell>
                <mxCell id="11" value="&lt;div&gt;ns:hasNext&lt;/div&gt;" style="text;html=1;align=center;verticalAlign=middle;resizable=0;points=[];labelBackgroundColor=#ffffff;" vertex="1" connectable="0" parent="10">
                    <mxGeometry x="-0.1269" relative="1" as="geometry">
                        <mxPoint x="4.17" as="offset"/>
                    </mxGeometry>
                </mxCell>
                <mxCell id="14" value="" style="endArrow=classic;html=1;exitX=1;exitY=0.3;exitDx=0;exitDy=0;endSize=8;arcSize=0;curved=1;edgeStyle=orthogonalEdgeStyle;entryX=0.5;entryY=1;entryDx=0;entryDy=0;" edge="1" source="3" target="3" parent="1">
                    <mxGeometry width="50" height="50" relative="1" as="geometry">
                        <mxPoint x="160" y="748.3299999999999" as="sourcePoint"/>
                        <mxPoint x="470" y="570" as="targetPoint"/>
                        <Array as="points">
                            <mxPoint x="460" y="489"/>
                            <mxPoint x="460" y="570"/>
                            <mxPoint x="350" y="570"/>
                        </Array>
                    </mxGeometry>
                </mxCell>
                <mxCell id="15" value="&lt;div&gt;ns:hasSuccessor&lt;/div&gt;" style="text;html=1;align=center;verticalAlign=middle;resizable=0;points=[];labelBackgroundColor=#ffffff;" vertex="1" connectable="0" parent="14">
                    <mxGeometry x="-0.1269" relative="1" as="geometry">
                        <mxPoint x="-6" as="offset"/>
                    </mxGeometry>
                </mxCell>
            </root>
        </mxGraphModel>
    </diagram>
</mxfile>